<svg xmlns="http://www.w3.org/2000/svg" xmlns:xlink="http://www.w3.org/1999/xlink" viewBox="120.94 117.21 782.82 788.3"><defs><linearGradient id="gradient_0" gradientUnits="userSpaceOnUse" x1="508.138" y1="777.61115" x2="513.97235" y2="245.32433"><stop offset="0" stop-color="#BFC9F4"/><stop offset="1" stop-color="#FFFFFE"/></linearGradient></defs><path fill="url(#gradient_0)" d="M121.172 294.206C120.263 246.706 135.758 203.058 168.857 168.6C200.066 136.34 242.899 117.929 287.783 117.481C320.929 116.839 356.153 117.522 389.53 117.517L593.946 117.515L679.19 117.964C707.458 117.844 737.983 115.664 765.873 121.054C798.322 127.324 827.598 141.696 851.449 164.765C884.418 196.615 903.168 240.401 903.468 286.241C903.649 305.461 903.657 324.683 903.494 343.904C903.48 354.162 903.91 368.36 903.41 378.286C903.982 460.213 903.857 542.143 903.034 624.068L903.035 698.33C903.09 718.286 903.778 746.851 900.279 766.127C895.485 805.246 872.359 844.117 841.432 868.277C818.891 885.951 792.302 897.733 764.066 902.557C743.727 905.955 726.929 905.408 706.35 905.415L649.807 905.429L448.5 905.035L333.672 905.213C314.957 905.287 283.161 906.302 265.471 904.058C221.246 898.198 181.185 874.941 154.167 839.441C138.828 819.404 126.072 792.255 123.132 766.984C120.329 756.449 121.011 720.152 121.013 707.991L121.026 617.827L121.172 294.206Z"/><defs><linearGradient id="gradient_1" gradientUnits="userSpaceOnUse" x1="515.5321" y1="586.58942" x2="509.20419" y2="115.01829"><stop offset="0" stop-color="#0DA9BC"/><stop offset="1" stop-color="#03D6B9"/></linearGradient></defs><path fill="url(#gradient_1)" d="M121.172 294.206C120.263 246.706 135.758 203.058 168.857 168.6C200.066 136.34 242.899 117.929 287.783 117.481C320.929 116.839 356.153 117.522 389.53 117.517L593.946 117.515L679.19 117.964C707.458 117.844 737.983 115.664 765.873 121.054C798.322 127.324 827.598 141.696 851.449 164.765C884.418 196.615 903.168 240.401 903.468 286.241C903.649 305.461 903.657 324.683 903.494 343.904C903.48 354.162 903.91 368.36 903.41 378.286C903.301 382.347 903.43 384.147 902.039 387.922L902.028 387.415C900.736 391.878 899 399.276 897.098 403.41C863.363 476.742 800.867 535.505 731.097 574.526C722.884 579.12 714.961 581.889 707.004 585.994C706.928 561.308 707.073 536.621 707.44 511.938L707.523 378.206L707.52 340.393C707.515 332.895 707.687 322.607 706.649 315.305C705.655 308.306 699.57 298.058 694.352 293.179C653.685 255.149 567.364 244.588 513.789 244.564C459.194 244.539 368.904 254.809 326.968 293.955C321.693 298.879 317.868 305.266 316.891 312.403C315.182 324.881 315.54 338.01 315.575 350.578L315.752 403.01L316.099 585.149C308.367 582.935 298.827 577.802 291.593 573.995C253.23 553.903 218.467 527.586 188.719 496.115C165.751 471.417 147.584 445.088 132.442 414.99C128.46 407.076 123.768 397.634 121.654 388.878C121.386 387.767 121.575 382.474 121.626 381.083C121.163 354.678 121.738 326.264 121.741 299.708C121.752 297.205 121.742 296.627 121.172 294.206Z"/><path fill="#02AFB5" d="M121.741 299.708C123.286 305.773 123.341 375.43 121.626 381.083C121.163 354.678 121.738 326.264 121.741 299.708Z"/><defs><linearGradient id="gradient_2" gradientUnits="userSpaceOnUse" x1="490.57083" y1="356.93137" x2="547.08569" y2="918.85474"><stop offset="0" stop-color="#098EA6"/><stop offset="1" stop-color="#0771C2"/></linearGradient></defs><path fill="url(#gradient_2)" d="M121.172 294.206C121.742 296.627 121.752 297.205 121.741 299.708C121.738 326.264 121.163 354.678 121.626 381.083C121.575 382.474 121.386 387.767 121.654 388.878C123.768 397.634 128.46 407.076 132.442 414.99C147.584 445.088 165.751 471.417 188.719 496.115C218.467 527.586 253.23 553.903 291.593 573.995C298.827 577.802 308.367 582.935 316.099 585.149L316.339 671.208C316.361 683.802 314.994 706.362 317.824 717.631C319.57 724.586 323.852 730.345 328.92 735.276C366.203 771.55 469.255 779.85 520.377 778.856C527.541 778.717 534.781 778.716 541.932 778.283C584.283 775.678 661.721 765.294 693.749 735.512C705.75 723.63 707.035 716.466 706.921 699.956C706.859 690.986 706.983 681.358 706.984 672.338L707.004 585.994C714.961 581.889 722.884 579.12 731.097 574.526C800.867 535.505 863.363 476.742 897.098 403.41C899 399.276 900.736 391.878 902.028 387.415L902.039 387.922C903.43 384.147 903.301 382.347 903.41 378.286C903.982 460.213 903.857 542.143 903.034 624.068L903.035 698.33C903.09 718.286 903.778 746.851 900.279 766.127C895.485 805.246 872.359 844.117 841.432 868.277C818.891 885.951 792.302 897.733 764.066 902.557C743.727 905.955 726.929 905.408 706.35 905.415L649.807 905.429L448.5 905.035L333.672 905.213C314.957 905.287 283.161 906.302 265.471 904.058C221.246 898.198 181.185 874.941 154.167 839.441C138.828 819.404 126.072 792.255 123.132 766.984C120.329 756.449 121.011 720.152 121.013 707.991L121.026 617.827L121.172 294.206Z"/><path fill="#063D88" d="M123.132 766.984C125.782 769.302 127.259 774.663 128.151 778.1C140.054 824.01 170.697 860.747 213.494 882.494C231.85 891.77 251.782 897.523 272.258 899.457C297.461 901.834 323.916 900.109 349.307 900.041L487.508 899.886L655.27 900.358L708.362 900.493C717.817 900.514 729.47 900.857 738.739 900.339C755.423 899.396 771.92 896.332 787.83 891.22C840.161 874.211 871.556 840.61 891.548 789.776C894.536 782.18 896.123 773.522 898.339 765.637C899.134 762.809 899.07 759.095 900.311 756.66C900.654 760.157 899.266 763.024 900.279 766.127C895.485 805.246 872.359 844.117 841.432 868.277C818.891 885.951 792.302 897.733 764.066 902.557C743.727 905.955 726.929 905.408 706.35 905.415L649.807 905.429L448.5 905.035L333.672 905.213C314.957 905.287 283.161 906.302 265.471 904.058C221.246 898.198 181.185 874.941 154.167 839.441C138.828 819.404 126.072 792.255 123.132 766.984Z"/><path fill="#063D88" d="M692.497 599.506L692.418 670.751C692.444 680.257 693.721 707.826 690.764 715.03C690.368 720 688.185 720.548 690.683 726.371C691.321 727.856 692.223 732.35 692.492 734.016L693.749 735.512C661.721 765.294 584.283 775.678 541.932 778.283C542.607 776.64 542.57 777.44 542.174 775.81C539.957 774.481 536.565 776.007 534.233 776.773C525.202 772.247 527.542 775.194 517.322 767.893C514.452 767.73 511.421 767.67 508.534 767.565C506.572 765.757 505.308 764.351 502.609 764.017L499.225 763.591C456.234 762.623 374.611 754.249 339.701 724.104C336.746 721.552 332.441 715.102 331.932 711.469C330.24 699.375 331.315 684.364 331.382 671.984C331.538 648.588 331.445 625.191 331.103 601.797C364.93 639.88 454.736 649.02 502.93 649.935C524.243 650.297 545.558 649.323 566.75 647.019C603.889 642.958 652.33 634.174 682.6 610.149C686.392 607.14 689.477 603.279 692.497 599.506Z"/><path fill="#AEB3FB" d="M690.764 715.03C690.368 720 688.185 720.548 690.683 726.371C691.321 727.856 692.223 732.35 692.492 734.016L693.749 735.512C661.721 765.294 584.283 775.678 541.932 778.283C542.607 776.64 542.57 777.44 542.174 775.81C539.957 774.481 536.565 776.007 534.233 776.773C525.202 772.247 527.542 775.194 517.322 767.893C514.452 767.73 511.421 767.67 508.534 767.565C506.572 765.757 505.308 764.351 502.609 764.017L499.225 763.591C509.058 763.282 519.301 763.737 529.246 763.405C548.938 762.7 568.568 760.793 588.027 757.695C613.972 753.539 653.093 745.328 675.228 730.728C681.485 726.601 686.403 721.061 690.764 715.03Z"/><path fill="#0A5E8E" d="M691.861 472.682C692.373 495.593 692.539 518.511 692.359 541.428C692.373 552.53 693.049 569.906 692.23 580.479C689.482 602.632 662.89 613.517 644.415 620.311C596.564 637.908 544.867 641.009 494.373 639.609C458.143 638.605 422.989 634.104 388.272 623.466C369.792 617.803 336.918 606.686 331.588 585.936C330.711 575.443 331.392 558.308 331.411 547.183L331.4 473.252C350.016 491.909 368.956 498.874 393.763 505.734C451.827 521.789 513.421 523.147 573.018 516.747C608.651 512.921 668.416 502.09 691.861 472.682Z"/><path fill="#063D88" d="M331.588 585.936L332.065 585.031C333.871 584.909 335.451 587.068 336.64 588.315C341.638 593.558 346.555 597.169 353.087 600.349C423.026 634.396 564.374 634.29 637.848 610.291C651.138 605.95 665.216 600.568 677.04 593.022C681.31 590.296 687.37 581.798 691.439 580.664C691.7 580.591 691.966 580.541 692.23 580.479C689.482 602.632 662.89 613.517 644.415 620.311C596.564 637.908 544.867 641.009 494.373 639.609C458.143 638.605 422.989 634.104 388.272 623.466C369.792 617.803 336.918 606.686 331.588 585.936Z"/><path fill="#FEFEFE" d="M509.121 545.548C512.072 545.427 514.155 545.568 516.99 546.473C522.682 548.3 527.402 552.335 530.092 557.674C535.943 569.196 530.33 578.854 519.169 583.58C522.349 593.858 524.917 604.502 527.394 614.964L514.625 615.286C507.745 615.422 500.863 615.319 493.991 614.978C496.469 604.763 499.592 593.823 502.326 583.597C483.181 572.999 488.467 551.081 509.121 545.548Z"/><path fill="#0A5E8E" d="M691.323 350.924L691.561 351.169C692.213 352.941 692.034 361.101 691.984 363.476C691.359 393.648 692.835 424.069 691.324 454.168C690.465 462.562 686.086 468.81 679.533 473.705C666.21 483.658 648.086 489.465 632.932 495.088C569.249 518.718 376.722 521.225 333.818 462.797C330.155 456.034 331.445 429.391 331.454 420.333L331.519 351.282C333.109 353.059 334.764 354.777 336.479 356.434C370.441 388.831 472.483 400.469 517.681 398.923C567.863 397.208 654.571 389.389 691.323 350.924Z"/><path fill="#0A5E8E" d="M497.296 260.712C547.422 257.486 637.257 266.691 678.873 299.835C684.728 304.498 690.419 312.914 690.819 320.535C691.145 326.722 688.261 334.03 683.654 338.487C652.862 368.281 601.461 376.361 560.641 381.481C550.709 382.726 536.463 382.95 526.878 383.419C466.397 384.204 393.735 379.645 342.71 342.203C331.581 334.036 326.696 317.517 336.867 306.647C341.679 301.504 348.081 297.155 354.042 293.359C396.267 267.724 449.349 263.415 497.296 260.712Z"/></svg>